<?xml version="1.0" encoding="UTF-8" standalone="no"?>
<!-- Created with Inkscape (http://www.inkscape.org/) -->

<svg
   width="443.0329"
   height="133.26157"
   viewBox="0 0 117.21912 35.25879"
   version="1.1"
   id="svg1"
   inkscape:version="1.2.2 (b0a8486541, 2022-12-01)"
   sodipodi:docname="logo.svg"
   inkscape:export-filename="Chomp Type Test.png"
   inkscape:export-xdpi="300"
   inkscape:export-ydpi="300"
   xmlns:inkscape="http://www.inkscape.org/namespaces/inkscape"
   xmlns:sodipodi="http://sodipodi.sourceforge.net/DTD/sodipodi-0.dtd"
   xmlns="http://www.w3.org/2000/svg"
   xmlns:svg="http://www.w3.org/2000/svg">
  <sodipodi:namedview
     id="namedview1"
     pagecolor="#ffffff"
     bordercolor="#d4d4d4"
     borderopacity="1"
     inkscape:showpageshadow="0"
     inkscape:pageopacity="1"
     inkscape:pagecheckerboard="false"
     inkscape:deskcolor="#f5f5f5"
     inkscape:document-units="px"
     showgrid="false"
     inkscape:zoom="1.4148187"
     inkscape:cx="175.99428"
     inkscape:cy="66.086206"
     inkscape:window-width="1841"
     inkscape:window-height="1344"
     inkscape:window-x="26"
     inkscape:window-y="23"
     inkscape:window-maximized="0"
     inkscape:current-layer="layer1"
     showborder="false"
     borderlayer="true"
     shape-rendering="auto">
    <inkscape:grid
       id="grid1"
       units="in"
       originx="-12.85434"
       originy="-21.938351"
       spacingx="3.175"
       spacingy="3.175"
       empcolor="#0099e5"
       empopacity="0.30196078"
       color="#0099e5"
       opacity="0.14901961"
       empspacing="4"
       dotted="false"
       gridanglex="30"
       gridanglez="30"
       visible="false" />
  </sodipodi:namedview>
  <defs
     id="defs1" />
  <g
     inkscape:label="logo"
     inkscape:groupmode="layer"
     id="layer1"
     transform="translate(-12.85434,-21.93835)">
    <path
       d="M 55.506431,45.70362 Q 55.273598,44.835785 55.040764,44.010284 54.829097,43.163616 54.74443,42.697949 h -0.08467 q -0.08467,0.465667 -0.296334,1.312335 -0.1905,0.825501 -0.4445,1.714503 l -1.841503,6.371177 H 50.003089 L 47.060918,40.750612 h 1.905003 l 1.460502,6.053676 q 0.148167,0.613835 0.275167,1.248836 0.148167,0.613834 0.254001,1.185335 0.105833,0.550334 0.148167,0.952502 h 0.08467 q 0.0635,-0.359834 0.169334,-0.889002 0.127,-0.529167 0.254,-1.100668 0.148167,-0.592668 0.275167,-1.058335 l 1.841503,-6.392344 h 2.032004 l 1.778002,6.392344 q 0.148167,0.486834 0.275168,1.037168 0.148166,0.550334 0.254,1.079502 0.127,0.508001 0.169334,0.910168 h 0.0635 q 0.0635,-0.529168 0.275167,-1.460502 0.211667,-0.931335 0.444501,-1.905004 l 1.481669,-6.053676 h 1.862669 l -2.963338,11.345352 h -2.137837 z m 16.754013,0.719668 q 0,1.418169 -0.359834,2.518837 -0.338668,1.079502 -0.994835,1.841503 -0.656168,0.762001 -1.587503,1.164169 -0.931335,0.381 -2.074336,0.381 -1.058335,0 -1.968504,-0.381 -0.889001,-0.402168 -1.566335,-1.164169 -0.656168,-0.762001 -1.016002,-1.841503 -0.359834,-1.100668 -0.359834,-2.518837 0,-1.883836 0.592668,-3.175005 0.613834,-1.312336 1.735669,-1.98967 1.121835,-0.698501 2.645838,-0.698501 1.460502,0 2.56117,0.698501 1.121836,0.677334 1.756837,1.98967 0.635001,1.291169 0.635001,3.175005 z m -8.02218,0 q 0,1.333502 0.317501,2.328337 0.3175,0.973668 0.994835,1.502836 0.677334,0.529167 1.735669,0.529167 1.058335,0 1.735669,-0.529167 0.677335,-0.529168 0.994835,-1.502836 0.338668,-0.994835 0.338668,-2.328337 0,-1.354669 -0.338668,-2.30717 -0.3175,-0.952502 -0.994835,-1.460503 -0.677334,-0.529167 -1.756836,-0.529167 -1.587502,0 -2.30717,1.143002 -0.719668,1.143001 -0.719668,3.153838 z m 14.224697,-5.863176 q 0.296334,0 0.635001,0.04233 0.338668,0.02117 0.592668,0.08467 l -0.211667,1.714503 q -0.254,-0.0635 -0.571501,-0.105834 -0.296334,-0.04233 -0.571501,-0.04233 -0.613834,0 -1.164168,0.275167 -0.550334,0.275167 -0.994835,0.783168 -0.423334,0.486834 -0.677335,1.185335 -0.254,0.698501 -0.254,1.566336 V 52.11713 H 73.40412 V 40.771779 h 1.502836 l 0.211667,2.074337 h 0.08467 q 0.338667,-0.635001 0.804334,-1.143002 0.486834,-0.529168 1.100669,-0.825502 0.613834,-0.3175 1.354668,-0.3175 z m 4.244281,3.873506 q 0,0.338667 -0.04233,0.889001 -0.02117,0.550335 -0.04233,0.952502 h 0.08467 q 0.127001,-0.169334 0.359834,-0.486834 0.232834,-0.317501 0.486835,-0.635001 0.254,-0.338667 0.4445,-0.550334 l 3.365506,-3.831173 h 2.137836 l -4.318007,4.847174 4.614341,6.498177 H 87.59675 l -3.661839,-5.291675 -1.227669,1.121835 v 4.16984 H 80.886906 V 36.030438 h 1.820336 z m 15.277338,4.550841 q 0,1.100668 -0.529168,1.841503 -0.508001,0.740834 -1.460502,1.121835 -0.952502,0.381 -2.286004,0.381 -1.121835,0 -1.947336,-0.1905 -0.804335,-0.1905 -1.418169,-0.529168 v -1.693336 q 0.656167,0.338668 1.566336,0.635001 0.910168,0.275168 1.841503,0.275168 1.291168,0 1.862669,-0.444501 0.592668,-0.465668 0.592668,-1.227669 0,-0.423334 -0.232834,-0.762001 -0.211667,-0.338667 -0.783168,-0.677334 -0.550334,-0.338668 -1.608669,-0.762002 -1.016002,-0.423334 -1.756836,-0.846668 -0.719668,-0.423334 -1.121835,-1.016001 -0.381001,-0.592668 -0.381001,-1.524003 0,-1.439335 1.100668,-2.222503 1.121836,-0.783168 2.921005,-0.783168 0.973668,0 1.820336,0.211667 0.846668,0.1905 1.60867,0.550334 l -0.613835,1.481669 q -0.4445,-0.211667 -0.931335,-0.359834 -0.486834,-0.169333 -0.994834,-0.254 -0.486835,-0.105834 -0.994835,-0.105834 -1.037169,0 -1.587503,0.381001 -0.550334,0.359834 -0.550334,0.994835 0,0.465667 0.254,0.804334 0.254001,0.338668 0.825502,0.656168 0.592667,0.296334 1.608669,0.698501 1.016001,0.402168 1.735669,0.825502 0.719668,0.423334 1.079502,1.037168 0.381001,0.592668 0.381001,1.502836 z m 2.94808,-8.233847 q 0,0.402167 -0.0423,0.825501 -0.0212,0.423335 -0.0635,0.762002 h 0.127 q 0.33866,-0.592668 0.84666,-0.973669 0.52917,-0.381 1.14301,-0.5715 0.635,-0.211667 1.31233,-0.211667 1.29117,0 2.159,0.4445 0.86784,0.423334 1.31234,1.333502 0.4445,0.910169 0.4445,2.370671 v 7.387178 h -1.8415 v -7.260178 q 0,-1.375835 -0.5715,-2.05317 -0.5715,-0.677334 -1.75684,-0.677334 -1.16417,0 -1.8415,0.486834 -0.67734,0.465667 -0.9525,1.397002 -0.27517,0.910168 -0.27517,2.24367 V 52.11713 H 99.091157 V 36.030438 h 1.841503 z m 18.39977,5.672676 q 0,1.418169 -0.35983,2.518837 -0.33867,1.079502 -0.99484,1.841503 -0.65616,0.762001 -1.5875,1.164169 -0.93133,0.381 -2.07434,0.381 -1.05833,0 -1.9685,-0.381 -0.889,-0.402168 -1.56633,-1.164169 -0.65617,-0.762001 -1.01601,-1.841503 -0.35983,-1.100668 -0.35983,-2.518837 0,-1.883836 0.59267,-3.175005 0.61383,-1.312336 1.73567,-1.98967 1.12183,-0.698501 2.64583,-0.698501 1.46051,0 2.56118,0.698501 1.12183,0.677334 1.75683,1.98967 0.635,1.291169 0.635,3.175005 z m -8.02218,0 q 0,1.333502 0.3175,2.328337 0.3175,0.973668 0.99484,1.502836 0.67733,0.529167 1.73567,0.529167 1.05833,0 1.73567,-0.529167 0.67733,-0.529168 0.99483,-1.502836 0.33867,-0.994835 0.33867,-2.328337 0,-1.354669 -0.33867,-2.30717 -0.3175,-0.952502 -0.99483,-1.460503 -0.67734,-0.529167 -1.75684,-0.529167 -1.5875,0 -2.30717,1.143002 -0.71967,1.143001 -0.71967,3.153838 z m 14.40287,-5.863176 q 1.96851,0 3.15384,1.460502 1.2065,1.460503 1.2065,4.402674 0,1.92617 -0.55033,3.259672 -0.55033,1.312335 -1.54517,1.98967 -0.97367,0.656167 -2.286,0.656167 -0.8255,0 -1.46051,-0.232833 -0.61383,-0.232834 -1.05833,-0.592668 -0.4445,-0.381001 -0.762,-0.825501 h -0.127 q 0.0423,0.359834 0.0847,0.910168 0.0423,0.550334 0.0423,0.952501 v 4.656674 h -1.8415 V 40.771779 h 1.50283 l 0.254,1.545169 h 0.0847 q 0.3175,-0.486834 0.762,-0.889001 0.4445,-0.402168 1.05833,-0.635001 0.63501,-0.232834 1.48167,-0.232834 z m -0.35983,1.566336 q -1.05834,0 -1.7145,0.4445 -0.635,0.423334 -0.93134,1.291169 -0.29633,0.867835 -0.29633,2.201337 v 0.359834 q 0,1.397002 0.254,2.37067 0.27517,0.973669 0.93133,1.481669 0.65617,0.508001 1.79917,0.508001 0.9525,0 1.56634,-0.571501 0.61383,-0.571501 0.91017,-1.545169 0.29633,-0.994835 0.29633,-2.264837 0,-1.947336 -0.6985,-3.111505 -0.67734,-1.164168 -2.11667,-1.164168 z"
       id="text2-9-6-3-5-0-0-1"
       style="font-size:21.1667px;line-height:1.25;font-family:'Noto Sans Display';-inkscape-font-specification:'Noto Sans Display, Normal';font-variant-numeric:slashed-zero;stroke-width:0.264583;fill:#333333;fill-opacity:1"
       inkscape:label="workshop"
       aria-label="workshop" />
    <path
       d="m 25.245672,23.658143 -0.617362,4.652262 q -0.319705,-0.0882 -0.63941,-0.121268 -0.319705,-0.03307 -0.639411,-0.03307 -0.815799,0 -1.554428,0.220487 -0.738629,0.209462 -1.311894,0.650434 -0.56224,0.440973 -0.903994,1.102432 -0.330729,0.661459 -0.330729,1.554429 0,0.573264 0.176389,0.992188 0.187413,0.418924 0.518143,0.694532 0.330729,0.275608 0.782726,0.4079 0.451997,0.132292 0.992189,0.132292 0.407899,0 0.848872,-0.08819 0.440973,-0.08819 0.870921,-0.23151 0.429948,-0.143317 0.837848,-0.33073 0.4079,-0.187413 0.749654,-0.385851 l -0.440973,5.181429 q -0.429948,0.220486 -0.937067,0.396875 -0.496094,0.165365 -1.025262,0.297657 -0.529167,0.121267 -1.058334,0.187413 -0.529167,0.06615 -1.014237,0.06615 -1.400088,0 -2.612763,-0.518143 -1.212675,-0.518143 -2.105645,-1.422137 -0.892969,-0.903994 -1.411112,-2.127693 -0.507119,-1.234723 -0.507119,-2.65686 0,-1.885158 0.540192,-3.54983 0.540191,-1.675696 1.587501,-2.932468 1.04731,-1.256773 2.590715,-1.984377 1.554428,-0.727605 3.571878,-0.727605 0.760678,0 1.554429,0.121267 0.804775,0.121268 1.488283,0.451997 z m 14.154414,15.500189 -5.512159,0.264584 -0.0441,-5.093234 h -2.535593 l -0.15434,4.82865 H 26.215 l 0.418924,-15.500189 5.247575,0.242535 -0.33073,7.91546 h 2.447398 l 0.02205,-8.510773 5.027088,0.132292 z m 14.953877,-7.783167 q 0,1.003213 -0.231511,1.94028 -0.23151,0.926042 -0.672483,1.741842 -0.429948,0.815799 -1.058335,1.499307 -0.617361,0.672483 -1.400088,1.157553 -0.771702,0.48507 -1.68672,0.760678 -0.915019,0.264583 -1.94028,0.264583 -0.992188,0 -1.896182,-0.253559 -0.89297,-0.253559 -1.675697,-0.705556 -0.782726,-0.463021 -1.422136,-1.102432 -0.628387,-0.650434 -1.080384,-1.433161 -0.440972,-0.793751 -0.694531,-1.697745 -0.242535,-0.903994 -0.242535,-1.885158 0,-0.959115 0.23151,-1.874134 0.231511,-0.926042 0.661459,-1.741842 0.440973,-0.815799 1.058335,-1.499307 0.617361,-0.683508 1.378039,-1.179602 0.771702,-0.496094 1.664672,-0.771702 0.89297,-0.275608 1.885158,-0.275608 1.598526,0 2.91042,0.496094 1.322918,0.496095 2.24896,1.422137 0.937067,0.915019 1.444186,2.226912 0.518143,1.30087 0.518143,2.91042 z m -4.894797,0.286632 q 0,-0.474046 -0.143316,-0.915018 -0.132292,-0.451997 -0.396875,-0.793751 -0.264584,-0.352778 -0.661459,-0.56224 -0.385851,-0.220487 -0.89297,-0.220487 -0.518143,0 -0.926043,0.187414 -0.407899,0.187413 -0.705556,0.518143 -0.286632,0.319705 -0.440973,0.760678 -0.15434,0.429948 -0.15434,0.915018 0,0.463021 0.132292,0.926043 0.132292,0.463021 0.396875,0.837848 0.264584,0.374826 0.650435,0.606337 0.396875,0.231511 0.915018,0.231511 0.518143,0 0.926043,-0.198438 0.418924,-0.209462 0.705556,-0.551216 0.286632,-0.352778 0.440973,-0.804775 0.15434,-0.451997 0.15434,-0.937067 z m 23.08411,-8.576918 -1.01424,16.183697 -5.027086,0.220486 0.0441,-8.532821 -2.271009,6.879173 h -1.94028 l -1.741842,-6.151568 -0.02205,7.143757 -5.093234,0.15434 0.220486,-15.235605 5.666499,-0.220487 2.248961,7.298098 2.998614,-7.73907 z m 14.39614,5.468061 q 0,1.069358 -0.3197,1.896182 -0.31971,0.826824 -0.88195,1.444186 -0.55122,0.617361 -1.30087,1.04731 -0.74965,0.429948 -1.60955,0.705556 -0.84887,0.264584 -1.76389,0.396875 -0.91502,0.121268 -1.79697,0.132292 v 5.137332 h -5.13733 q 0,-2.524569 0.011,-5.027089 0.011,-2.502519 0.0331,-5.049137 0.0221,-1.344966 0.011,-2.689933 -0.011,-1.344967 0.0551,-2.711982 1.41112,-0.418924 2.82223,-0.628386 1.41111,-0.209462 2.91042,-0.209462 0.84887,0 1.69774,0.143316 0.84888,0.132292 1.62058,0.429949 0.78272,0.297656 1.44418,0.749653 0.67249,0.440973 1.15756,1.058335 0.48507,0.617361 0.76067,1.411112 0.28664,0.782727 0.28664,1.763891 z m -4.8948,0.374827 q 0,-0.716581 -0.44097,-1.113456 -0.42995,-0.4079 -1.12448,-0.4079 -0.23151,0 -0.48507,0.0441 -0.24253,0.03307 -0.46302,0.08819 l -0.13229,3.2191 q 0.15434,0.02205 0.29765,0.02205 0.14332,0 0.29766,0 0.39688,0 0.76068,-0.132292 0.37483,-0.132292 0.66146,-0.374827 0.28663,-0.253559 0.45199,-0.584289 0.17639,-0.341753 0.17639,-0.760676 z"
       id="text1-0-8-8-4-3"
       style="font-size:22.5778px;line-height:1.25;font-family:'Luckiest Guy';-inkscape-font-specification:'Luckiest Guy, Normal';fill:#333333;fill-opacity:1;stroke-width:0.264583"
       inkscape:label="chomp shadow"
       aria-label="CHOMP" />
    <path
       d="m 24.187338,22.599809 -0.617362,4.652262 q -0.319705,-0.0882 -0.63941,-0.121268 -0.319705,-0.03307 -0.639411,-0.03307 -0.815799,0 -1.554428,0.220487 -0.738629,0.209462 -1.311894,0.650434 -0.56224,0.440973 -0.903994,1.102432 -0.330729,0.661459 -0.330729,1.554429 0,0.573264 0.176389,0.992188 0.187413,0.418924 0.518143,0.694532 0.330729,0.275608 0.782726,0.4079 0.451997,0.132292 0.992189,0.132292 0.407899,0 0.848872,-0.08819 0.440973,-0.08819 0.870921,-0.23151 0.429948,-0.143317 0.837848,-0.33073 0.4079,-0.187413 0.749654,-0.385851 l -0.440973,5.181429 q -0.429948,0.220486 -0.937067,0.396875 -0.496094,0.165365 -1.025262,0.297657 -0.529167,0.121267 -1.058334,0.187413 -0.529167,0.06615 -1.014237,0.06615 -1.400088,0 -2.612763,-0.518143 -1.212675,-0.518143 -2.105645,-1.422137 -0.892969,-0.903994 -1.411112,-2.127693 -0.507119,-1.234723 -0.507119,-2.65686 0,-1.885158 0.540192,-3.54983 0.540191,-1.675696 1.587501,-2.932468 1.04731,-1.256773 2.590715,-1.984377 1.554428,-0.727605 3.571878,-0.727605 0.760678,0 1.554429,0.121267 0.804775,0.121268 1.488283,0.451997 z m 14.154414,15.500189 -5.512159,0.264584 -0.0441,-5.093234 h -2.535593 l -0.15434,4.82865 h -4.938894 l 0.418924,-15.500189 5.247575,0.242535 -0.33073,7.91546 h 2.447398 l 0.02205,-8.510773 5.027088,0.132292 z m 14.953877,-7.783167 q 0,1.003213 -0.231511,1.94028 -0.23151,0.926042 -0.672483,1.741842 -0.429948,0.815799 -1.058335,1.499307 -0.617361,0.672483 -1.400088,1.157553 -0.771702,0.48507 -1.68672,0.760678 -0.915019,0.264583 -1.94028,0.264583 -0.992188,0 -1.896182,-0.253559 -0.89297,-0.253559 -1.675697,-0.705556 -0.782726,-0.463021 -1.422136,-1.102432 -0.628387,-0.650434 -1.080384,-1.433161 -0.440972,-0.793751 -0.694531,-1.697745 -0.242535,-0.903994 -0.242535,-1.885158 0,-0.959115 0.23151,-1.874134 0.231511,-0.926042 0.661459,-1.741842 0.440973,-0.815799 1.058335,-1.499307 0.617361,-0.683508 1.378039,-1.179602 0.771702,-0.496094 1.664672,-0.771702 0.89297,-0.275608 1.885158,-0.275608 1.598526,0 2.91042,0.496094 1.322918,0.496095 2.24896,1.422137 0.937067,0.915019 1.444186,2.226912 0.518143,1.30087 0.518143,2.91042 z m -4.894797,0.286632 q 0,-0.474046 -0.143316,-0.915018 -0.132292,-0.451997 -0.396875,-0.793751 -0.264584,-0.352778 -0.661459,-0.56224 -0.385851,-0.220487 -0.89297,-0.220487 -0.518143,0 -0.926043,0.187414 -0.407899,0.187413 -0.705556,0.518143 -0.286632,0.319705 -0.440973,0.760678 -0.15434,0.429948 -0.15434,0.915018 0,0.463021 0.132292,0.926043 0.132292,0.463021 0.396875,0.837848 0.264584,0.374826 0.650435,0.606337 0.396875,0.231511 0.915018,0.231511 0.518143,0 0.926043,-0.198438 0.418924,-0.209462 0.705556,-0.551216 0.286632,-0.352778 0.440973,-0.804775 0.15434,-0.451997 0.15434,-0.937067 z m 23.084109,-8.576918 -1.014237,16.183697 -5.027088,0.220486 0.0441,-8.532821 -2.271009,6.879173 h -1.94028 l -1.741842,-6.151568 -0.02205,7.143757 -5.093234,0.15434 0.220486,-15.235605 5.666499,-0.220487 2.248961,7.298098 2.998614,-7.73907 z m 14.396141,5.468061 q 0,1.069358 -0.319705,1.896182 -0.319706,0.826824 -0.881946,1.444186 -0.551216,0.617361 -1.300869,1.04731 -0.749654,0.429948 -1.60955,0.705556 -0.848873,0.264584 -1.763891,0.396875 -0.915018,0.121268 -1.796964,0.132292 v 5.137332 h -5.137331 q 0,-2.524569 0.01102,-5.027089 0.01102,-2.502519 0.03307,-5.049137 0.02205,-1.344966 0.01102,-2.689933 -0.01102,-1.344967 0.05512,-2.711982 1.411112,-0.418924 2.822225,-0.628386 1.411112,-0.209462 2.910419,-0.209462 0.848873,0 1.697745,0.143316 0.848873,0.132292 1.620575,0.429949 0.782726,0.297656 1.444185,0.749653 0.672484,0.440973 1.157554,1.058335 0.48507,0.617361 0.760677,1.411112 0.286633,0.782727 0.286633,1.763891 z m -4.894797,0.374827 q 0,-0.716581 -0.440973,-1.113456 -0.429948,-0.4079 -1.12448,-0.4079 -0.231511,0 -0.48507,0.0441 -0.242535,0.03307 -0.463021,0.08819 l -0.132292,3.2191 q 0.15434,0.02205 0.297657,0.02205 0.143316,0 0.297656,0 0.396876,0 0.760678,-0.132292 0.374827,-0.132292 0.661459,-0.374827 0.286632,-0.253559 0.451997,-0.584289 0.176389,-0.341753 0.176389,-0.760677 z"
       id="text1-0-8-8-4"
       style="font-size:22.5778px;line-height:1.25;font-family:'Luckiest Guy';-inkscape-font-specification:'Luckiest Guy, Normal';stroke-width:0.264583;fill:#277a8c;fill-opacity:1"
       inkscape:label="chomp"
       aria-label="CHOMP" />
  </g>
</svg>
